<svg width="227" height="212" viewBox="0 0 227 212" fill="none" xmlns="http://www.w3.org/2000/svg">
<path d="M102.532 4.49424C108.666 -1.37501 118.334 -1.37502 124.468 4.49424L132.538 12.2157C136.534 16.0389 142.232 17.5055 147.577 16.0865L158.968 13.0624C167.416 10.8194 176.087 15.8326 178.359 24.2734L180.61 32.6359C182.136 38.3061 186.669 42.6697 192.393 43.9788L202 46.1758C211.017 48.2379 216.365 57.5446 213.606 66.3732L211.619 72.734C209.758 78.6903 211.562 85.1842 216.227 89.3279L221.643 94.1375C228.75 100.449 228.75 111.551 221.643 117.863L216.227 122.672C211.562 126.816 209.758 133.31 211.619 139.266L213.606 145.627C216.365 154.455 211.017 163.762 202 165.824L192.393 168.021C186.669 169.33 182.136 173.694 180.61 179.364L178.359 187.727C176.087 196.167 167.416 201.181 158.968 198.938L147.577 195.914C142.232 194.494 136.534 195.961 132.538 199.784L124.468 207.506C118.334 213.375 108.666 213.375 102.532 207.506L94.4617 199.784C90.4659 195.961 84.7676 194.494 79.4226 195.914L68.0321 198.938C59.5836 201.181 50.9125 196.167 48.6409 187.727L46.3902 179.364C44.8642 173.694 40.3312 169.33 34.607 168.021L25 165.824C15.9833 163.762 10.6352 154.455 13.3936 145.627L15.3809 139.266C17.2419 133.31 15.4384 126.816 10.7727 122.672L5.35709 117.862C-1.7498 111.551 -1.7498 100.449 5.35709 94.1375L10.7727 89.3279C15.4384 85.1842 17.2419 78.6903 15.3809 72.734L13.3936 66.3732C10.6352 57.5446 15.9833 48.2379 25 46.1758L34.607 43.9788C40.3312 42.6697 44.8642 38.3061 46.3902 32.6359L48.6409 24.2733C50.9125 15.8326 59.5836 10.8194 68.0321 13.0624L79.4226 16.0865C84.7676 17.5055 90.4659 16.0389 94.4617 12.2157L102.532 4.49424Z" fill="#84B8C9"/>
</svg>
