<svg width="213.024658" height="199.470703" viewBox="0 0 213.025 199.471" fill="none" xmlns="http://www.w3.org/2000/svg" xmlns:xlink="http://www.w3.org/1999/xlink">
	<desc>
			Created with Pixso.
	</desc>
	<defs/>
	<path id="Star 9" d="M95.5274 4.41846L88.9491 10.731C84.9499 14.5684 79.2379 16.041 73.8819 14.6147L64.5639 12.1338C56.1083 9.88232 47.4262 14.9019 45.1584 23.353L43.4053 29.8862C41.8833 35.5581 37.3528 39.9253 31.629 41.2378L24.0473 42.9771C15.041 45.0425 9.69855 54.3374 12.4468 63.1597L13.8859 67.7793C15.7379 73.7241 13.9409 80.2031 9.29105 84.3447L5.31287 87.8882C-1.77094 94.1982 -1.77094 105.273 5.31287 111.583L9.29105 115.126C13.9409 119.268 15.7379 125.747 13.8859 131.692L12.4468 136.312C9.69858 145.133 15.041 154.428 24.0473 156.494L31.6289 158.233C37.3528 159.546 41.8833 163.913 43.4053 169.585L45.1584 176.118C47.4262 184.569 56.1083 189.589 64.5639 187.337L73.8819 184.856C79.2379 183.43 84.95 184.902 88.9491 188.74L95.5274 195.053C101.666 200.943 111.359 200.943 117.497 195.053L124.076 188.74C128.075 184.902 133.787 183.43 139.143 184.856L148.461 187.337C156.916 189.589 165.598 184.569 167.866 176.118L169.619 169.585C171.141 163.913 175.672 159.546 181.396 158.233L188.977 156.494C197.984 154.428 203.326 145.133 200.578 136.312L199.139 131.692C197.287 125.747 199.084 119.268 203.734 115.126L207.712 111.583C214.796 105.273 214.796 94.1982 207.712 87.8882L203.734 84.3447C199.084 80.2031 197.287 73.7241 199.139 67.7793L200.578 63.1597C203.326 54.3374 197.984 45.0425 188.977 42.9771L181.396 41.2378C175.672 39.9253 171.141 35.5581 169.619 29.8862L167.866 23.353C165.598 14.9019 156.916 9.88232 148.461 12.1338L139.143 14.6147C133.787 16.041 128.075 14.5684 124.076 10.731L117.497 4.41846C111.359 -1.47266 101.666 -1.47266 95.5274 4.41846Z" fill="#B8EEFF" fill-opacity="1.000000" fill-rule="evenodd"/>
</svg>
